<svg width="15" height="15" viewBox="0 0 15 15" fill="none" xmlns="http://www.w3.org/2000/svg">
<path fill-rule="evenodd" clip-rule="evenodd" d="M2.87826 4.47202C2.62445 3.51878 3.49163 2.83337 4.32059 2.83337H10.6792C11.5075 2.83337 12.3741 3.5187 12.1223 4.47116L12.1219 4.4726C11.9486 5.12028 11.6294 5.72373 11.1867 6.24053C10.7439 6.75733 10.1884 7.17493 9.55922 7.46399C9.25256 7.60484 9.08958 7.84688 9.08958 8.06226V10.6437C9.08948 10.8322 9.0346 11.0173 8.93109 11.1777C8.8276 11.338 8.67959 11.4675 8.50364 11.5518L7.44386 12.0596C7.28233 12.1369 7.10274 12.1735 6.92235 12.1657C6.74196 12.1579 6.56663 12.1061 6.41301 12.0151C6.25939 11.9242 6.13256 11.7971 6.04458 11.646C5.95659 11.4949 5.91035 11.3248 5.91026 11.1517V8.06226C5.91026 7.84697 5.74743 7.60498 5.44035 7.46411C4.8114 7.1749 4.25572 6.75702 3.8132 6.24025C3.37068 5.72347 3.05161 5.12011 2.87841 4.47256L2.87826 4.47202ZM3.90508 4.22075C4.0399 4.72456 4.28817 5.19399 4.63248 5.59607C4.9768 5.99818 5.40882 6.32318 5.89819 6.54825C6.46321 6.80753 6.97003 7.3515 6.97003 8.06226L6.97003 11.1512L8.02969 10.6435L8.02981 8.06226C8.02981 7.35151 8.53662 6.80754 9.10108 6.54827M3.90508 4.22075C3.88146 4.13178 3.90431 4.05426 3.97127 3.98492C4.04482 3.90874 4.17062 3.84889 4.32059 3.84889H10.6792C10.8284 3.84889 10.9543 3.90857 11.0282 3.98505C11.0955 4.0547 11.1184 4.13249 11.0951 4.22129C10.9602 4.72497 10.7119 5.19425 10.3675 5.59618C10.023 5.99834 9.5907 6.32333 9.10108 6.54827" fill="#1D1F26"/>
</svg>
