<svg width="34" height="34" viewBox="0 0 34 34" fill="none" xmlns="http://www.w3.org/2000/svg">
<g id="ri:auction-fill" clip-path="url(#clip0_5815_71)">
<path id="Vector" d="M17.0494 30.838C17.9008 30.838 18.591 31.5282 18.591 32.3796C18.591 33.2311 17.9008 33.9213 17.0494 33.9213H1.63272C0.781277 33.9213 0.0910492 33.2311 0.0910492 32.3796C0.0910492 31.5282 0.781277 30.838 1.63272 30.838H17.0494Z" fill="#22285C"/>
<path id="Vector 22" d="M12.54 24.42L28.08 9.25L19.94 1.48L18.46 2.59V4.81L8.84 14.8H6.62L4.77 16.65L12.54 24.42Z" fill="#D9DCFF"/>
<path id="Vector 23" d="M8.1 19.98L22.9 4.07L19.94 1.48L18.46 2.59V4.81L8.84 14.8H6.62L4.77 16.65L8.1 19.98Z" fill="#C1C4E8"/>
<path id="Vector_2" d="M18.3151 2.40963C19.0592 1.66547 20.2658 1.66547 21.0099 2.40964L30.306 11.7057C31.0502 12.45 31.0502 13.6566 30.306 14.4009L30.0831 14.6237C29.7096 14.9973 29.1571 15.1279 28.6558 14.9611V14.9611C28.1545 14.7943 27.602 14.9249 27.2285 15.2985L25.5921 16.9349C24.7251 17.8018 24.7251 19.2074 25.5921 20.0744L31.6536 26.1359C32.2555 26.7378 32.2555 27.7138 31.6536 28.3158V28.3158C31.0516 28.9178 30.0756 28.9178 29.4737 28.3158L23.4119 22.254C22.545 21.3872 21.1397 21.387 20.2726 22.2537L18.7719 23.7538C18.3776 24.1479 18.2191 24.7202 18.3544 25.2611V25.2611C18.4897 25.8019 18.3313 26.374 17.9371 26.7682L17.7838 26.9215C17.0147 27.6907 15.7676 27.6906 14.9984 26.9214L5.79174 17.7135C5.02309 16.9448 5.02313 15.6985 5.79183 14.9298L5.94392 14.7777C6.33849 14.3831 6.91115 14.2245 7.4525 14.3599V14.3599C7.99385 14.4952 8.56651 14.3366 8.96108 13.942L17.4178 5.48526C17.7911 5.11203 17.9215 4.56 17.7547 4.05921V4.05921C17.5879 3.55842 17.7183 3.0064 18.0915 2.63317L18.3151 2.40963Z" stroke="#22285C" stroke-width="2.22"/>
<path id="Vector 24" d="M11.5 16.5L15.5 20.5" stroke="#6C71A5" stroke-width="2" stroke-linecap="round" stroke-linejoin="round"/>
<path id="Vector 25" d="M20 8L24 12" stroke="#6C71A5" stroke-width="2" stroke-linecap="round" stroke-linejoin="round"/>
</g>
<defs>
<clipPath id="clip0_5815_71">
<rect width="34" height="34" fill="white"/>
</clipPath>
</defs>
</svg>
